# xmcd CD database file
#
# Track frame offsets:
#	150
#	25782
#	53470
#	77500
#	100737
#	115845
#	130520
#	156560
#	175550
#	194362
#	196775
#
# Disc length: 2852 seconds
#
# Revision: 0
# Processed by: cddbd v1.5.1PL0 Copyright (c) Steve Scherf et al.
# Submitted via: CDex 1.51
#
DISCID=7a0b220b
DTITLE=Saskia Laroo - It's like jazz
DYEAR=1999
DGENRE=Jazz
TTITLE0=Ya know how we do
TTITLE1=If ye got it ye get it
TTITLE2=It's like jazz
TTITLE3=Poocee (the black and white monster)
TTITLE4=Jazzparty
TTITLE5=Drop that horn
TTITLE6=Where you going m'am
TTITLE7=Sunday afternoon
TTITLE8=Hipfunk D
TTITLE9=Jazzparty (reprise)
TTITLE10=Ya know how we do (radio edit)
EXTD=YEAR: 1999
EXTT0=
EXTT1=
EXTT2=
EXTT3=
EXTT4=
EXTT5=
EXTT6=
EXTT7=
EXTT8=
EXTT9=
EXTT10=
PLAYORDER=
